# ProBuilder 5.1.1
# https://unity3d.com/unity/features/worldbuilding/probuilder
# 11/1/2023 1:47:35 PM

mtllib ./Cliff.mtl
o Cliff

g Sprite (1)
v 2.5 3 -2.5
v 2.5 3 2.5
v -2.5 3 -2.5
v -2.5 3 2.5
v 2.5 0.0001 -2.5
v 2.5 0.0001 2.5
v -2.5 0.0001 -2.5
v -2.5 0.0001 2.5

vt -5 -5
vt -5 0
vt 0 -5
vt 0 0
vt 5 0.0001
vt 5 3
vt 0 3
vt -5 3

vn 0 1 0
vn 1 0 0
vn 0 0 -1
vn 0 0 1
vn -1 0 0

usemtl ProBuilderDefault
f 3/3/1 4/4/1 2/2/1 1/1/1
f 1/6/2 2/7/2 6/4/2 5/5/2
f 3/7/3 1/8/3 5/2/3 7/4/3
f 2/6/4 4/7/4 8/4/4 6/5/4
f 4/7/5 3/8/5 7/2/5 8/4/5

