# Blender v2.93.0 OBJ File: ''
# www.blender.org
mtllib Ramp.mtl
o Ramp.001
v 2.500000 0.000100 -2.500000
v 2.500000 3.000000 2.500000
v 2.500000 0.000100 2.500000
v -2.500000 3.000000 2.500000
v -2.500000 0.000100 -2.500000
v -2.500000 0.000100 2.500000
vt 5.000000 0.000100
vt 0.000000 3.000000
vt 0.000000 0.000100
vt 0.000000 3.000000
vt -5.000000 0.000100
vt 0.000000 0.000100
vt 0.000000 4.995862
vt -5.000000 4.995862
vt -5.000000 -0.000340
vt 0.000000 -0.000340
vt 5.000000 0.000100
vt 5.000000 3.000000
vn 1.0000 0.0000 0.0000
vn -1.0000 0.0000 0.0000
vn 0.0000 0.8575 -0.5145
vn 0.0000 -0.0000 1.0000
usemtl ProBuilderDefault.001
s 1
f 1/1/1 2/2/1 3/3/1
f 4/4/2 5/5/2 6/6/2
f 4/7/3 2/8/3 1/9/3
f 1/9/3 5/10/3 4/7/3
f 4/4/4 6/6/4 3/11/4
f 3/11/4 2/12/4 4/4/4
